PathFileType	4	(X/Y/Z)	C:\Users\Basilio\Documents\Thesis Gigler\squatting_fais\c3dfiles\058\SLS_back_pre2\markers_experimental.trc
DataRate	CameraRate	NumFrames	NumMarkers	Units	OrigDataRate	OrigDataStartFrame	OrigNumFrames
200.000000	200.000000	4	61	mm	200.000000	185	1487
Frame#	Time	FHD			LBHD			RBHD			C7			T10			CLAV			LSHO			LUUPA			LMUPA			LDUPA			LLEP			LMEP			LUL			LRFIN			RSHO			RUPA1			RMUPA			RDUPA			RLEP			RMEP			RRAD			RUL			RUFIN			LASI			RASI			USACR			LSACR			RSACR			LTHI1			LTHI2			LTHI3			LTHI4			LLFC			LMFC			LTIB1			LTIB2			LTIB3			LTIB4			LLMAL			LMMAL			LHEE			LMT1			LMT5			RTHI			RTHI2			RTHI3			RTHI4			RLFC			RMFC			RTIB1			RTIB2			RTIB3			RTIB4			RLMAL			RMMAL			RHEE			RMT1			RMT2			RMT5			LRAD			LMT2			
		X1	Y1	Z1	X2	Y2	Z2	X3	Y3	Z3	X4	Y4	Z4	X5	Y5	Z5	X6	Y6	Z6	X7	Y7	Z7	X8	Y8	Z8	X9	Y9	Z9	X10	Y10	Z10	X11	Y11	Z11	X12	Y12	Z12	X13	Y13	Z13	X14	Y14	Z14	X15	Y15	Z15	X16	Y16	Z16	X17	Y17	Z17	X18	Y18	Z18	X19	Y19	Z19	X20	Y20	Z20	X21	Y21	Z21	X22	Y22	Z22	X23	Y23	Z23	X24	Y24	Z24	X25	Y25	Z25	X26	Y26	Z26	X27	Y27	Z27	X28	Y28	Z28	X29	Y29	Z29	X30	Y30	Z30	X31	Y31	Z31	X32	Y32	Z32	X33	Y33	Z33	X34	Y34	Z34	X35	Y35	Z35	X36	Y36	Z36	X37	Y37	Z37	X38	Y38	Z38	X39	Y39	Z39	X40	Y40	Z40	X41	Y41	Z41	X42	Y42	Z42	X43	Y43	Z43	X44	Y44	Z44	X45	Y45	Z45	X46	Y46	Z46	X47	Y47	Z47	X48	Y48	Z48	X49	Y49	Z49	X50	Y50	Z50	X51	Y51	Z51	X52	Y52	Z52	X53	Y53	Z53	X54	Y54	Z54	X55	Y55	Z55	X56	Y56	Z56	X57	Y57	Z57	X58	Y58	Z58	X59	Y59	Z59	X60	Y60	Z60	X61	Y61	Z61	

186	0.925	-191.4540405273438	1782.899169921875	-814.1865234375002	-350.9996337890626	1770.541137695313	-897.1085205078127	-169.0786437988282	1786.452026367188	-954.962097167969	-395.9277343750001	1591.594604492188	-914.5581665039065	-381.1780700683594	1276.7314453125	-900.693298339844	-240.0171966552735	1542.78759765625	-882.8200683593752	-255.0730743408204	1589.2509765625	-1059.562255859375	-251.9017944335938	1381.013061523438	-1178.23876953125	-203.2810668945313	1388.3125	-1181.484985351563	-209.8820800781251	1328.142578125	-1190.826782226563	-149.9824371337891	1266.969848632813	-1189.946655273438	-169.2447509765625	1229.73291015625	-1118.089477539063	-27.24547004699708	1452.990966796875	-1022.648193359375	-90.52787017822267	1547.518432617188	-1026.280883789063	-302.1662292480469	1588.985961914063	-708.7156982421876	-374.6038208007813	1361.7607421875	-620.7355346679689	-326.8123779296876	1348.834716796875	-617.4631958007814	-353.4370117187501	1295.854125976563	-613.1702880859376	-354.6517944335938	1229.03173828125	-616.7398681640626	-353.7412109375001	1204.052001953125	-696.8741455078126	-207.7221069335938	991.5809326171877	-603.5716552734376	-270.3117980957032	983.4714355468752	-553.4214477539064	-179.6412506103516	914.7357177734377	-561.1354370117189	-184.7583465576172	1079.467163085938	-1008.6640625	-196.5484466552735	1088.56689453125	-765.2858276367189	-385.5283508300782	1159.977294921875	-889.1331787109377	-389.431854248047	1126.794799804688	-915.988952636719	-389.9064331054689	1128.43603515625	-858.3063964843752	-258.4996643066407	799.7420654296877	-1088.050659179688	-235.0495147705079	717.8028564453126	-1085.067626953125	-189.4675445556641	716.5988159179689	-1064.445678710938	-267.9048156738282	668.2617187500001	-1080.863159179688	-281.1869812011719	566.3773193359376	-1073.830688476563	-250.8359527587891	551.9493408203126	-950.1650390625002	-234.684310913086	426.5730285644532	-1049.15087890625	-295.6172485351563	396.2110595703126	-1100.03271484375	-254.4558105468751	384.7785949707032	-1081.773071289063	-256.2088928222657	301.2182617187501	-1061.39697265625	-325.0737609863282	105.2939376831055	-1073.887084960938	-295.0577087402344	124.7402038574219	-987.8146972656252	-382.6586303710938	81.29023742675783	-1017.6435546875	-160.7054901123047	64.96499633789064	-1003.401611328125	-209.2841186523438	35.21416473388673	-1101.856689453125	-315.0703735351563	889.474792480469	-688.1672363281251	-282.3727111816407	833.0074462890627	-683.8604736328126	-250.2318420410157	830.9687500000002	-688.8105468750001	-320.8266296386719	755.8109741210939	-692.8628540039064	-336.0075378417969	573.2274780273439	-701.4744262695314	-299.0146484375001	548.1906127929689	-832.0193481445315	-294.3305053710938	357.5022277832032	-766.9133300781251	-337.8394470214844	287.8571777343751	-694.0115966796876	-303.2317199707032	277.9510192871094	-725.5924072265626	-312.6424560546876	230.3302764892579	-755.8499755859376	-373.1369323730469	124.2178344726563	-707.9135742187501	-344.5103149414063	140.7947540283203	-796.6218261718752	-440.074920654297	102.8363876342774	-766.2379150390626	-228.8426055908204	60.41752243041994	-777.6724853515627	-223.951156616211	61.04231262207033	-725.4893798828126	-274.4473876953126	29.19654273986817	-673.9180908203126	-102.8284454345703	1456.474853515625	-993.8025512695315	nan	nan	nan	
187	0.93	-191.8687896728516	1783.221801757813	-813.6220703125002	-351.1011962890626	1770.488403320313	-896.9576416015627	-169.0404968261719	1786.647094726563	-954.3840332031252	-395.8913879394532	1591.620483398438	-914.445983886719	-381.1996459960938	1276.74560546875	-900.6582641601565	-239.9694366455079	1542.744750976563	-882.6339111328127	-254.6473846435547	1589.138793945313	-1059.563354492188	-253.4749908447266	1380.9755859375	-1178.4736328125	-204.6976165771485	1387.700561523438	-1182.168701171875	-211.5247039794922	1327.637939453125	-1191.542602539063	-152.4741973876953	1265.814575195313	-1191.033203125	-174.7129974365235	1228.388427734375	-1119.660766601563	-26.25479316711426	1449.059448242188	-1023.271728515625	-87.61037445068361	1544.981811523438	-1025.174926757813	-302.1735534667969	1588.940307617188	-708.5886840820314	-374.6802062988282	1361.70947265625	-620.6932373046876	-326.8789367675782	1348.7470703125	-617.3874511718751	-353.4833374023438	1295.8486328125	-613.1381835937501	-354.5437622070313	1228.765747070313	-616.6842651367189	-353.8887634277344	1203.997314453125	-696.8323974609376	-207.9991455078126	991.3318481445315	-603.4169311523439	-270.5312500000001	983.4213867187502	-553.3565063476564	-179.9720306396485	914.5405273437502	-561.0125732421876	-184.6626586914063	1079.485229492188	-1008.502014160156	-196.5524139404297	1088.58447265625	-765.1271972656251	-385.5217285156251	1159.974365234375	-889.1655883789065	-389.4584350585939	1126.775268554688	-915.9565429687502	-389.9182739257814	1128.441040039063	-858.306579589844	-258.3992309570313	799.7178344726565	-1088.00927734375	-234.9252624511719	717.8108520507814	-1085.002319335938	-189.3822174072266	716.6398925781251	-1064.400634765625	-267.8078613281251	668.2538452148439	-1080.828491210938	-281.1130981445313	566.3576049804689	-1073.818725585938	-250.8141174316407	551.6968994140626	-950.1675415039065	-234.5540618896485	426.5512084960939	-1049.136474609375	-295.6123962402344	396.2098693847657	-1100.001708984375	-254.4486083984376	384.7525329589845	-1081.744873046875	-256.2076721191407	301.2233886718751	-1061.401245117188	-325.0418395996094	105.3158035278321	-1073.877319335938	-295.0531616210938	124.7354202270508	-987.8391723632815	-382.6596069335938	81.33721160888673	-1017.600830078125	-160.7395172119141	64.9523391723633	-1003.428283691406	-209.2143707275391	35.18338775634766	-1101.893310546875	-315.1341247558594	889.4866333007815	-688.1624755859376	-282.4533386230469	833.0324707031252	-683.8554687500001	-250.2819366455079	831.079528808594	-688.6328125000001	-320.8220825195313	755.8126831054689	-692.7866821289064	-336.0589599609376	573.2460937500001	-701.4269409179689	-299.0360107421876	548.1790161132814	-831.995544433594	-294.3380432128907	357.5163879394532	-766.8884887695314	-337.9167785644532	287.8823547363282	-693.9337158203126	-303.1640625000001	277.9338684082032	-725.5465698242189	-312.6573181152344	230.3328399658204	-755.7994384765626	-373.1539306640626	124.2254409790039	-707.9204101562501	-344.4926757812501	140.7796478271485	-796.630798339844	-440.0586242675782	102.9041213989258	-766.2459716796876	-228.9046020507813	60.41907882690431	-777.649353027344	-223.9230957031251	61.06218719482423	-725.4822998046876	-274.4009704589844	29.30361366271973	-673.9132690429689	-101.3855209350586	1453.638916015625	-994.1777954101565	nan	nan	nan	
188	0.9350000000000001	-192.2149353027344	1783.332397460938	-813.0301513671877	-351.3033447265626	1770.417358398438	-896.7246704101565	-169.0644683837891	1786.839599609375	-953.7888793945315	-395.7825317382814	1591.627319335938	-914.360778808594	-381.1597290039063	1276.800659179688	-900.616882324219	-239.8816223144532	1542.755004882813	-882.497253417969	-254.2986907958985	1589.14599609375	-1059.509887695313	-255.0559997558594	1380.788330078125	-1178.771362304688	-206.0028381347657	1387.212158203125	-1182.707153320313	-213.8733825683594	1327.09130859375	-1191.984619140625	-154.7892150878907	1264.788330078125	-1191.998413085938	-177.5834350585938	1227.402954101563	-1120.598510742188	-25.13416290283204	1445.02197265625	-1024.122192382813	-84.82795715332033	1542.388671875	-1024.1533203125	-302.3661804199219	1588.954345703125	-708.5850219726564	-374.7690734863282	1361.644775390625	-620.6160888671876	-326.8849792480469	1348.748168945313	-617.3004760742189	-353.5971069335938	1295.767944335938	-613.1119384765626	-354.5617370605469	1228.723754882813	-616.6519775390626	-354.1848144531251	1203.876831054688	-696.8568725585939	-208.3746643066407	991.1571044921877	-603.3555908203126	-270.9590148925782	983.2442016601565	-553.2496948242189	-180.7013244628907	914.2115478515627	-560.7859497070314	-184.6301422119141	1079.53125	-1008.342956542969	-196.5898742675782	1088.582275390625	-765.0178833007814	-385.5177001953126	1160.008178710938	-889.1743164062502	-389.4175720214845	1126.776123046875	-915.9959716796877	-389.9517517089845	1128.394165039063	-858.3284912109377	-258.2918395996094	799.7500610351565	-1087.947631835938	-234.8641815185547	717.8532104492189	-1084.94775390625	-189.2334289550782	716.6809082031251	-1064.404541015625	-267.7568969726563	668.2294311523439	-1080.757690429688	-281.0156250000001	566.3474121093751	-1073.806640625	-250.7518310546876	551.6588134765626	-950.167175292969	-234.4936218261719	426.5899353027345	-1049.150024414063	-295.5908813476563	396.1874084472657	-1099.996948242188	-254.2611999511719	384.800994873047	-1081.736083984375	-256.1784973144532	301.2489318847657	-1061.351196289063	-325.0454406738282	105.3207092285157	-1073.869506835938	-295.0695495605469	124.7383651733399	-987.8211669921877	-382.6528320312501	81.26667785644533	-1017.623657226563	-160.750717163086	64.95537567138673	-1003.423095703125	-209.2974853515626	35.14076614379884	-1101.906616210938	-315.2018432617188	889.466491699219	-688.1206054687501	-282.5395812988282	833.068786621094	-683.7840576171876	-250.4010009765626	830.913757324219	-688.7030639648439	-320.8616943359376	755.7961425781251	-692.7575073242189	-336.0620422363282	573.1878051757814	-701.4036865234376	-298.9084777832032	548.2063598632814	-831.9314575195315	-294.2787780761719	357.5072937011719	-766.8216552734376	-337.8788757324219	287.8357849121094	-693.9646606445314	-303.1961059570313	277.9362792968751	-725.5382690429689	-312.6494445800782	230.2948608398438	-755.7661132812501	-373.1608886718751	124.2158813476563	-707.8989257812501	-344.5201416015626	140.7086486816407	-796.542663574219	-439.9894104003907	102.8736267089844	-766.2333984375001	-228.9148559570313	60.38679885864259	-777.6338500976565	-223.9360656738282	61.0071487426758	-725.4874267578126	-274.4726257324219	29.33496665954591	-673.8406982421876	-99.80805206298831	1450.72802734375	-994.895202636719	nan	nan	nan	
189	0.9400000000000001	-192.8148803710938	1783.299194335938	-812.6011352539065	-351.3603210449219	1770.351196289063	-896.5867919921877	-169.1931762695313	1787.045166015625	-953.3129882812502	-395.6524658203126	1591.6044921875	-914.2690429687502	-381.1780700683594	1276.787475585938	-900.581726074219	-239.8266601562501	1542.739868164063	-882.294128417969	-253.7318725585938	1589.104736328125	-1059.60595703125	-256.4214477539063	1380.614135742188	-1179.104370117188	-207.6120605468751	1386.712890625	-1183.000854492188	-215.5476074218751	1326.554565429688	-1192.741943359375	-157.6488952636719	1263.718139648438	-1192.866455078125	-180.1395263671875	1226.615356445313	-1121.742797851563	-24.06713676452637	1441.249389648438	-1024.655029296875	-82.20383453369142	1539.655883789063	-1022.988830566406	-302.3991088867188	1588.90869140625	-708.4139404296876	-374.7499084472657	1361.810668945313	-620.3905639648439	-326.9141845703126	1348.668334960938	-617.2695312500001	-353.7821044921876	1295.690307617188	-613.0002441406251	-354.6229248046876	1228.705444335938	-616.6207275390626	-354.1517639160157	1203.868774414063	-696.7901611328126	-208.6673126220704	991.111511230469	-603.2644653320314	-271.3134460449219	983.0688476562502	-553.1806030273439	-180.8895568847657	913.9458007812502	-560.7033081054689	-184.5944213867188	1079.529052734375	-1008.183654785156	-196.5800781250001	1088.626220703125	-764.8918457031251	-385.5782470703126	1159.9833984375	-889.1629638671877	-389.4540100097657	1126.770751953125	-916.0380859375002	-389.991912841797	1128.402587890625	-858.330017089844	-258.2387390136719	799.7818603515627	-1087.869262695313	-234.8457489013672	717.8608398437501	-1084.894653320313	-189.2017211914063	716.6508789062501	-1064.355590820313	-267.6505432128907	668.2750244140626	-1080.724487304688	-280.9978942871094	566.3670654296876	-1073.729858398438	-250.6714935302735	551.6704101562501	-950.1169433593752	-234.2661895751954	426.6451110839845	-1049.123779296875	-295.4864807128907	396.2385864257814	-1099.944580078125	-254.2590484619141	384.7684936523439	-1081.741455078125	-256.1795654296876	301.2335510253907	-1061.361694335938	-325.0856323242188	105.3228225708008	-1073.851440429688	-295.0503845214844	124.7378463745117	-987.8045043945315	-382.6358642578126	81.26113891601564	-1017.637145996094	-160.7431793212891	64.96165466308595	-1003.396850585938	-209.3307342529297	35.17993164062501	-1101.879516601563	-315.2811584472657	889.4237060546877	-688.1059570312501	-282.6712646484376	833.0628051757815	-683.7247314453126	-250.5258941650391	831.0101318359377	-688.5595092773439	-320.8917541503907	755.7947998046876	-692.7550048828126	-336.0943603515626	573.1113281250001	-701.3811645507814	-298.9782104492188	548.1952514648439	-831.885681152344	-294.3102111816407	357.4987487792969	-766.7579345703126	-337.8365783691407	287.8709411621094	-693.9163818359376	-303.1386718750001	277.9088439941407	-725.5275268554689	-312.6533813476563	230.3181152343751	-755.7702636718751	-373.1567687988282	124.2070465087891	-707.8880615234376	-344.5277709960938	140.7565002441407	-796.5600585937502	-440.0679931640626	102.9075546264649	-766.2061157226564	-228.8636322021485	60.43478012084962	-777.6441650390627	-223.963363647461	60.98183441162111	-725.4719238281251	-274.4900207519532	29.34118843078614	-673.8492431640626	-98.85144042968753	1447.703735351563	-993.783142089844	nan	nan	nan	
